<mxfile host="app.diagrams.net" modified="2021-08-06T14:19:36.068Z" agent="5.0 (Macintosh; Intel Mac OS X 10_15_7) AppleWebKit/605.1.15 (KHTML, like Gecko) Version/14.1.1 Safari/605.1.15" etag="tCgnvcTbqsJpdq2kcGxb" version="14.9.3" type="github">
  <diagram id="nGohKdczenQnRl5z0bSV" name="Page-1">
    <mxGraphModel dx="1112" dy="759" grid="1" gridSize="10" guides="1" tooltips="1" connect="1" arrows="1" fold="1" page="1" pageScale="1" pageWidth="850" pageHeight="1100" math="0" shadow="0">
      <root>
        <mxCell id="0" />
        <mxCell id="1" parent="0" />
        <mxCell id="VEktvyc2K6zz12xoLXoA-7" style="edgeStyle=orthogonalEdgeStyle;rounded=0;orthogonalLoop=1;jettySize=auto;html=1;exitX=0.5;exitY=1;exitDx=0;exitDy=0;entryX=0.5;entryY=0;entryDx=0;entryDy=0;" edge="1" parent="1" source="VEktvyc2K6zz12xoLXoA-1" target="VEktvyc2K6zz12xoLXoA-2">
          <mxGeometry relative="1" as="geometry" />
        </mxCell>
        <mxCell id="VEktvyc2K6zz12xoLXoA-1" value="START" style="rounded=0;whiteSpace=wrap;html=1;" vertex="1" parent="1">
          <mxGeometry x="126" y="100" width="120" height="60" as="geometry" />
        </mxCell>
        <mxCell id="VEktvyc2K6zz12xoLXoA-8" style="edgeStyle=orthogonalEdgeStyle;rounded=0;orthogonalLoop=1;jettySize=auto;html=1;exitX=0.5;exitY=1;exitDx=0;exitDy=0;entryX=0.5;entryY=0;entryDx=0;entryDy=0;" edge="1" parent="1" source="VEktvyc2K6zz12xoLXoA-2" target="VEktvyc2K6zz12xoLXoA-4">
          <mxGeometry relative="1" as="geometry" />
        </mxCell>
        <mxCell id="VEktvyc2K6zz12xoLXoA-2" value="Left or right move of pong from center" style="rounded=0;whiteSpace=wrap;html=1;" vertex="1" parent="1">
          <mxGeometry x="126" y="200" width="120" height="60" as="geometry" />
        </mxCell>
        <mxCell id="VEktvyc2K6zz12xoLXoA-9" style="edgeStyle=orthogonalEdgeStyle;rounded=0;orthogonalLoop=1;jettySize=auto;html=1;exitX=0.5;exitY=1;exitDx=0;exitDy=0;entryX=0.5;entryY=0;entryDx=0;entryDy=0;" edge="1" parent="1" source="VEktvyc2K6zz12xoLXoA-4" target="VEktvyc2K6zz12xoLXoA-5">
          <mxGeometry relative="1" as="geometry" />
        </mxCell>
        <mxCell id="VEktvyc2K6zz12xoLXoA-10" style="edgeStyle=orthogonalEdgeStyle;rounded=0;orthogonalLoop=1;jettySize=auto;html=1;exitX=1;exitY=0.5;exitDx=0;exitDy=0;entryX=0;entryY=0.5;entryDx=0;entryDy=0;" edge="1" parent="1" source="VEktvyc2K6zz12xoLXoA-4" target="VEktvyc2K6zz12xoLXoA-6">
          <mxGeometry relative="1" as="geometry">
            <mxPoint x="276" y="350" as="targetPoint" />
          </mxGeometry>
        </mxCell>
        <mxCell id="VEktvyc2K6zz12xoLXoA-4" value="Does player&lt;br&gt;block pong?" style="rhombus;whiteSpace=wrap;html=1;" vertex="1" parent="1">
          <mxGeometry x="126" y="300" width="120" height="100" as="geometry" />
        </mxCell>
        <mxCell id="VEktvyc2K6zz12xoLXoA-17" style="edgeStyle=orthogonalEdgeStyle;rounded=0;orthogonalLoop=1;jettySize=auto;html=1;exitX=0;exitY=0.5;exitDx=0;exitDy=0;entryX=0;entryY=0.5;entryDx=0;entryDy=0;" edge="1" parent="1" source="VEktvyc2K6zz12xoLXoA-5" target="VEktvyc2K6zz12xoLXoA-4">
          <mxGeometry relative="1" as="geometry">
            <Array as="points">
              <mxPoint x="76" y="470" />
              <mxPoint x="76" y="350" />
            </Array>
          </mxGeometry>
        </mxCell>
        <mxCell id="VEktvyc2K6zz12xoLXoA-5" value="Pong moves to opposite side of screen" style="rounded=0;whiteSpace=wrap;html=1;" vertex="1" parent="1">
          <mxGeometry x="126" y="440" width="120" height="60" as="geometry" />
        </mxCell>
        <mxCell id="VEktvyc2K6zz12xoLXoA-19" style="edgeStyle=orthogonalEdgeStyle;rounded=0;orthogonalLoop=1;jettySize=auto;html=1;exitX=1;exitY=0.5;exitDx=0;exitDy=0;entryX=0;entryY=0.5;entryDx=0;entryDy=0;" edge="1" parent="1" source="VEktvyc2K6zz12xoLXoA-6" target="VEktvyc2K6zz12xoLXoA-18">
          <mxGeometry relative="1" as="geometry" />
        </mxCell>
        <mxCell id="VEktvyc2K6zz12xoLXoA-6" value="Offensive player scores" style="rounded=0;whiteSpace=wrap;html=1;" vertex="1" parent="1">
          <mxGeometry x="296" y="320" width="120" height="60" as="geometry" />
        </mxCell>
        <mxCell id="VEktvyc2K6zz12xoLXoA-14" value="No" style="text;html=1;strokeColor=none;fillColor=none;align=center;verticalAlign=middle;whiteSpace=wrap;rounded=0;" vertex="1" parent="1">
          <mxGeometry x="236" y="320" width="40" height="20" as="geometry" />
        </mxCell>
        <mxCell id="VEktvyc2K6zz12xoLXoA-15" value="Yes" style="text;html=1;strokeColor=none;fillColor=none;align=center;verticalAlign=middle;whiteSpace=wrap;rounded=0;" vertex="1" parent="1">
          <mxGeometry x="186" y="400" width="40" height="20" as="geometry" />
        </mxCell>
        <mxCell id="VEktvyc2K6zz12xoLXoA-20" style="edgeStyle=orthogonalEdgeStyle;rounded=0;orthogonalLoop=1;jettySize=auto;html=1;exitX=0.5;exitY=0;exitDx=0;exitDy=0;entryX=1;entryY=0.5;entryDx=0;entryDy=0;" edge="1" parent="1" source="VEktvyc2K6zz12xoLXoA-18" target="VEktvyc2K6zz12xoLXoA-2">
          <mxGeometry relative="1" as="geometry" />
        </mxCell>
        <mxCell id="VEktvyc2K6zz12xoLXoA-23" style="edgeStyle=orthogonalEdgeStyle;rounded=0;orthogonalLoop=1;jettySize=auto;html=1;exitX=1;exitY=0.5;exitDx=0;exitDy=0;entryX=0;entryY=0.5;entryDx=0;entryDy=0;" edge="1" parent="1" source="VEktvyc2K6zz12xoLXoA-18" target="VEktvyc2K6zz12xoLXoA-22">
          <mxGeometry relative="1" as="geometry" />
        </mxCell>
        <mxCell id="VEktvyc2K6zz12xoLXoA-18" value="Is score 10&lt;br&gt;for player?" style="rhombus;whiteSpace=wrap;html=1;" vertex="1" parent="1">
          <mxGeometry x="466" y="300" width="120" height="100" as="geometry" />
        </mxCell>
        <mxCell id="VEktvyc2K6zz12xoLXoA-21" value="No" style="text;html=1;strokeColor=none;fillColor=none;align=center;verticalAlign=middle;whiteSpace=wrap;rounded=0;" vertex="1" parent="1">
          <mxGeometry x="526" y="280" width="40" height="20" as="geometry" />
        </mxCell>
        <mxCell id="VEktvyc2K6zz12xoLXoA-22" value="Game Over" style="rounded=0;whiteSpace=wrap;html=1;" vertex="1" parent="1">
          <mxGeometry x="636" y="320" width="120" height="60" as="geometry" />
        </mxCell>
        <mxCell id="VEktvyc2K6zz12xoLXoA-24" value="Yes" style="text;html=1;strokeColor=none;fillColor=none;align=center;verticalAlign=middle;whiteSpace=wrap;rounded=0;" vertex="1" parent="1">
          <mxGeometry x="576" y="330" width="40" height="20" as="geometry" />
        </mxCell>
        <mxCell id="VEktvyc2K6zz12xoLXoA-26" value="Game Flow Chart: Pong" style="text;html=1;strokeColor=none;fillColor=none;align=center;verticalAlign=middle;whiteSpace=wrap;rounded=0;fontSize=16;" vertex="1" parent="1">
          <mxGeometry x="110" y="40" width="210" height="20" as="geometry" />
        </mxCell>
        <mxCell id="VEktvyc2K6zz12xoLXoA-27" value="Screen Class" style="swimlane;fontStyle=0;childLayout=stackLayout;horizontal=1;startSize=26;horizontalStack=0;resizeParent=1;resizeParentMax=0;resizeLast=0;collapsible=1;marginBottom=0;" vertex="1" parent="1">
          <mxGeometry x="80" y="600" width="140" height="190" as="geometry">
            <mxRectangle x="80" y="760" width="110" height="26" as="alternateBounds" />
          </mxGeometry>
        </mxCell>
        <mxCell id="VEktvyc2K6zz12xoLXoA-28" value="Attributes:" style="text;strokeColor=none;fillColor=none;align=left;verticalAlign=top;spacingLeft=4;spacingRight=4;overflow=hidden;rotatable=0;points=[[0,0.5],[1,0.5]];portConstraint=eastwest;fontStyle=0" vertex="1" parent="VEktvyc2K6zz12xoLXoA-27">
          <mxGeometry y="26" width="140" height="24" as="geometry" />
        </mxCell>
        <mxCell id="VEktvyc2K6zz12xoLXoA-29" value="color&#xa;" style="text;strokeColor=none;fillColor=none;align=left;verticalAlign=top;spacingLeft=4;spacingRight=4;overflow=hidden;rotatable=0;points=[[0,0.5],[1,0.5]];portConstraint=eastwest;" vertex="1" parent="VEktvyc2K6zz12xoLXoA-27">
          <mxGeometry y="50" width="140" height="60" as="geometry" />
        </mxCell>
        <mxCell id="VEktvyc2K6zz12xoLXoA-30" value="Methods:&#xa;&#xa;setup (size)" style="text;strokeColor=none;fillColor=none;align=left;verticalAlign=top;spacingLeft=4;spacingRight=4;overflow=hidden;rotatable=0;points=[[0,0.5],[1,0.5]];portConstraint=eastwest;fontStyle=0" vertex="1" parent="VEktvyc2K6zz12xoLXoA-27">
          <mxGeometry y="110" width="140" height="80" as="geometry" />
        </mxCell>
        <mxCell id="VEktvyc2K6zz12xoLXoA-31" value="Scoreboard" style="swimlane;fontStyle=0;childLayout=stackLayout;horizontal=1;startSize=26;horizontalStack=0;resizeParent=1;resizeParentMax=0;resizeLast=0;collapsible=1;marginBottom=0;" vertex="1" parent="1">
          <mxGeometry x="416" y="600" width="140" height="190" as="geometry">
            <mxRectangle x="80" y="760" width="110" height="26" as="alternateBounds" />
          </mxGeometry>
        </mxCell>
        <mxCell id="VEktvyc2K6zz12xoLXoA-32" value="Attributes:" style="text;strokeColor=none;fillColor=none;align=left;verticalAlign=top;spacingLeft=4;spacingRight=4;overflow=hidden;rotatable=0;points=[[0,0.5],[1,0.5]];portConstraint=eastwest;fontStyle=0" vertex="1" parent="VEktvyc2K6zz12xoLXoA-31">
          <mxGeometry y="26" width="140" height="24" as="geometry" />
        </mxCell>
        <mxCell id="VEktvyc2K6zz12xoLXoA-33" value="score &#xa;game over " style="text;strokeColor=none;fillColor=none;align=left;verticalAlign=top;spacingLeft=4;spacingRight=4;overflow=hidden;rotatable=0;points=[[0,0.5],[1,0.5]];portConstraint=eastwest;" vertex="1" parent="VEktvyc2K6zz12xoLXoA-31">
          <mxGeometry y="50" width="140" height="60" as="geometry" />
        </mxCell>
        <mxCell id="VEktvyc2K6zz12xoLXoA-34" value="Methods:&#xa;&#xa;write to screen&#xa;clear score&#xa;update score" style="text;strokeColor=none;fillColor=none;align=left;verticalAlign=top;spacingLeft=4;spacingRight=4;overflow=hidden;rotatable=0;points=[[0,0.5],[1,0.5]];portConstraint=eastwest;fontStyle=0" vertex="1" parent="VEktvyc2K6zz12xoLXoA-31">
          <mxGeometry y="110" width="140" height="80" as="geometry" />
        </mxCell>
        <mxCell id="VEktvyc2K6zz12xoLXoA-35" value="Ball " style="swimlane;fontStyle=0;childLayout=stackLayout;horizontal=1;startSize=26;horizontalStack=0;resizeParent=1;resizeParentMax=0;resizeLast=0;collapsible=1;marginBottom=0;" vertex="1" parent="1">
          <mxGeometry x="586" y="600" width="140" height="190" as="geometry">
            <mxRectangle x="80" y="760" width="110" height="26" as="alternateBounds" />
          </mxGeometry>
        </mxCell>
        <mxCell id="VEktvyc2K6zz12xoLXoA-36" value="Attributes:" style="text;strokeColor=none;fillColor=none;align=left;verticalAlign=top;spacingLeft=4;spacingRight=4;overflow=hidden;rotatable=0;points=[[0,0.5],[1,0.5]];portConstraint=eastwest;fontStyle=0" vertex="1" parent="VEktvyc2K6zz12xoLXoA-35">
          <mxGeometry y="26" width="140" height="24" as="geometry" />
        </mxCell>
        <mxCell id="VEktvyc2K6zz12xoLXoA-37" value="size&#xa;color" style="text;strokeColor=none;fillColor=none;align=left;verticalAlign=top;spacingLeft=4;spacingRight=4;overflow=hidden;rotatable=0;points=[[0,0.5],[1,0.5]];portConstraint=eastwest;" vertex="1" parent="VEktvyc2K6zz12xoLXoA-35">
          <mxGeometry y="50" width="140" height="60" as="geometry" />
        </mxCell>
        <mxCell id="VEktvyc2K6zz12xoLXoA-38" value="Methods:&#xa;&#xa;move (back/forth)" style="text;strokeColor=none;fillColor=none;align=left;verticalAlign=top;spacingLeft=4;spacingRight=4;overflow=hidden;rotatable=0;points=[[0,0.5],[1,0.5]];portConstraint=eastwest;fontStyle=0" vertex="1" parent="VEktvyc2K6zz12xoLXoA-35">
          <mxGeometry y="110" width="140" height="80" as="geometry" />
        </mxCell>
        <mxCell id="VEktvyc2K6zz12xoLXoA-39" value="Lt Paddle" style="swimlane;fontStyle=0;childLayout=stackLayout;horizontal=1;startSize=26;horizontalStack=0;resizeParent=1;resizeParentMax=0;resizeLast=0;collapsible=1;marginBottom=0;" vertex="1" parent="1">
          <mxGeometry x="80" y="840" width="140" height="190" as="geometry">
            <mxRectangle x="80" y="760" width="110" height="26" as="alternateBounds" />
          </mxGeometry>
        </mxCell>
        <mxCell id="VEktvyc2K6zz12xoLXoA-40" value="Attributes:" style="text;strokeColor=none;fillColor=none;align=left;verticalAlign=top;spacingLeft=4;spacingRight=4;overflow=hidden;rotatable=0;points=[[0,0.5],[1,0.5]];portConstraint=eastwest;fontStyle=0" vertex="1" parent="VEktvyc2K6zz12xoLXoA-39">
          <mxGeometry y="26" width="140" height="24" as="geometry" />
        </mxCell>
        <mxCell id="VEktvyc2K6zz12xoLXoA-41" value="size&#xa;color" style="text;strokeColor=none;fillColor=none;align=left;verticalAlign=top;spacingLeft=4;spacingRight=4;overflow=hidden;rotatable=0;points=[[0,0.5],[1,0.5]];portConstraint=eastwest;" vertex="1" parent="VEktvyc2K6zz12xoLXoA-39">
          <mxGeometry y="50" width="140" height="60" as="geometry" />
        </mxCell>
        <mxCell id="VEktvyc2K6zz12xoLXoA-42" value="Methods:&#xa;&#xa;move (up/down)" style="text;strokeColor=none;fillColor=none;align=left;verticalAlign=top;spacingLeft=4;spacingRight=4;overflow=hidden;rotatable=0;points=[[0,0.5],[1,0.5]];portConstraint=eastwest;fontStyle=0" vertex="1" parent="VEktvyc2K6zz12xoLXoA-39">
          <mxGeometry y="110" width="140" height="80" as="geometry" />
        </mxCell>
        <mxCell id="VEktvyc2K6zz12xoLXoA-43" value="Net Class" style="swimlane;fontStyle=0;childLayout=stackLayout;horizontal=1;startSize=26;horizontalStack=0;resizeParent=1;resizeParentMax=0;resizeLast=0;collapsible=1;marginBottom=0;" vertex="1" parent="1">
          <mxGeometry x="250" y="600" width="140" height="190" as="geometry">
            <mxRectangle x="80" y="760" width="110" height="26" as="alternateBounds" />
          </mxGeometry>
        </mxCell>
        <mxCell id="VEktvyc2K6zz12xoLXoA-44" value="Attributes:" style="text;strokeColor=none;fillColor=none;align=left;verticalAlign=top;spacingLeft=4;spacingRight=4;overflow=hidden;rotatable=0;points=[[0,0.5],[1,0.5]];portConstraint=eastwest;fontStyle=0" vertex="1" parent="VEktvyc2K6zz12xoLXoA-43">
          <mxGeometry y="26" width="140" height="24" as="geometry" />
        </mxCell>
        <mxCell id="VEktvyc2K6zz12xoLXoA-45" value="color&#xa;size&#xa;alignment&#xa;" style="text;strokeColor=none;fillColor=none;align=left;verticalAlign=top;spacingLeft=4;spacingRight=4;overflow=hidden;rotatable=0;points=[[0,0.5],[1,0.5]];portConstraint=eastwest;" vertex="1" parent="VEktvyc2K6zz12xoLXoA-43">
          <mxGeometry y="50" width="140" height="60" as="geometry" />
        </mxCell>
        <mxCell id="VEktvyc2K6zz12xoLXoA-46" value="Methods:&#xa;&#xa;" style="text;strokeColor=none;fillColor=none;align=left;verticalAlign=top;spacingLeft=4;spacingRight=4;overflow=hidden;rotatable=0;points=[[0,0.5],[1,0.5]];portConstraint=eastwest;fontStyle=0" vertex="1" parent="VEktvyc2K6zz12xoLXoA-43">
          <mxGeometry y="110" width="140" height="80" as="geometry" />
        </mxCell>
        <mxCell id="VEktvyc2K6zz12xoLXoA-47" value="Rt Paddle" style="swimlane;fontStyle=0;childLayout=stackLayout;horizontal=1;startSize=26;horizontalStack=0;resizeParent=1;resizeParentMax=0;resizeLast=0;collapsible=1;marginBottom=0;" vertex="1" parent="1">
          <mxGeometry x="250" y="840" width="140" height="190" as="geometry">
            <mxRectangle x="80" y="760" width="110" height="26" as="alternateBounds" />
          </mxGeometry>
        </mxCell>
        <mxCell id="VEktvyc2K6zz12xoLXoA-48" value="Attributes:" style="text;strokeColor=none;fillColor=none;align=left;verticalAlign=top;spacingLeft=4;spacingRight=4;overflow=hidden;rotatable=0;points=[[0,0.5],[1,0.5]];portConstraint=eastwest;fontStyle=0" vertex="1" parent="VEktvyc2K6zz12xoLXoA-47">
          <mxGeometry y="26" width="140" height="24" as="geometry" />
        </mxCell>
        <mxCell id="VEktvyc2K6zz12xoLXoA-49" value="size&#xa;color" style="text;strokeColor=none;fillColor=none;align=left;verticalAlign=top;spacingLeft=4;spacingRight=4;overflow=hidden;rotatable=0;points=[[0,0.5],[1,0.5]];portConstraint=eastwest;" vertex="1" parent="VEktvyc2K6zz12xoLXoA-47">
          <mxGeometry y="50" width="140" height="60" as="geometry" />
        </mxCell>
        <mxCell id="VEktvyc2K6zz12xoLXoA-50" value="Methods:&#xa;&#xa;move (up/down)" style="text;strokeColor=none;fillColor=none;align=left;verticalAlign=top;spacingLeft=4;spacingRight=4;overflow=hidden;rotatable=0;points=[[0,0.5],[1,0.5]];portConstraint=eastwest;fontStyle=0" vertex="1" parent="VEktvyc2K6zz12xoLXoA-47">
          <mxGeometry y="110" width="140" height="80" as="geometry" />
        </mxCell>
      </root>
    </mxGraphModel>
  </diagram>
</mxfile>
